# xmcd
#
# Track frame offsets: 
#        150
#        17142
#        34622
#        53100
#        63082
#        75715
#        85500
#        106500
#        124685
#        148307
#        160650
#        177792
#        199140
#        212782
#        225950
#        238120
#
# Disc length: 3478 seconds
#
# Revision: 3
# Processed by: cddbd v1.5.2PL0 Copyright (c) Steve Scherf et al.
# Submitted via: ExactAudioCopyFreeDBPlugin 1.0
#
DISCID=c30d9410
DTITLE=Wilson Diesel - Short Cool Ones
DYEAR=1996
DGENRE=Blues
TTITLE0=I Can't Stand The Rain
TTITLE1=Other Man
TTITLE2=Spoonful
TTITLE3=Strange Love
TTITLE4=Evil
TTITLE5=Tee Ni Nee Ni Nu
TTITLE6=Little Red Rooster
TTITLE7=Running Shoes
TTITLE8=Too Wet To Plough
TTITLE9=My Babe
TTITLE10=Somebody Loan Me A Dime
TTITLE11=Sun Is Shining
TTITLE12=Sugar Babe
TTITLE13=Cherokee Dance
TTITLE14=Don't Start Me Talkin'
TTITLE15=Who Will Your Next Fool Be
EXTD=
EXTT0=
EXTT1=
EXTT2=
EXTT3=
EXTT4=
EXTT5=
EXTT6=
EXTT7=
EXTT8=
EXTT9=
EXTT10=
EXTT11=
EXTT12=
EXTT13=
EXTT14=
EXTT15=
PLAYORDER=
